# xmcd
#
# Track frame offsets: 
#        151
#        13059
#        25310
#        36610
#        49428
#        66021
#        76406
#        92714
#        105567
#        116385
#        132006
#        156213
#        171194
#        186909
#        202386
#        215982
#        234007
#        245662
#        266897
#        280172
#
# Disc length: 3918 seconds
#
# Revision: 0
# Processed by: cddbd v1.5.2PL0 Copyright (c) Steve Scherf et al.
# Submitted via: ExactAudioCopyFreeDBPlugin 1.0
#
DISCID=2c0f4c14
DTITLE=Various Artist - Disco Magic [CD 2)
DYEAR=2003
DGENRE=Disco
TTITLE0=Detroit Emeralds - You Want It, You Got It
TTITLE1=George McCrae - It's Been So Long
TTITLE2=Brothers - Sing Me
TTITLE3=Clarence Carter - Back Stabbers
TTITLE4=Rose Royce - Is It Love You're After
TTITLE5=Ohio Players - Street Party
TTITLE6=Johnny Wakelin - In Zaire
TTITLE7=Foundations - Back On My Feet Again
TTITLE8=Peppers - Pepperbox
TTITLE9=Eddie Floyd - Knock On Wood
TTITLE10=Thomas And Taylor - Love Somebody
TTITLE11=Rufus Thomas - Do The Funky Chicken
TTITLE12=Clarence Carter - Lovely Day
TTITLE13=Brothers - Montego Bay
TTITLE14=Tommy Hunt - Loving On The Losing Side
TTITLE15=Tavares - Word And Music
TTITLE16=Foundations - Baby Now That I've Found You
TTITLE17=Sister Sledge - Thinking Of You
TTITLE18=Chicory Tip - Son Of My Father
TTITLE19=George McCrae - I Can't Leave You Alone
EXTD=
EXTT0=
EXTT1=
EXTT2=
EXTT3=
EXTT4=
EXTT5=
EXTT6=
EXTT7=
EXTT8=
EXTT9=
EXTT10=
EXTT11=
EXTT12=
EXTT13=
EXTT14=
EXTT15=
EXTT16=
EXTT17=
EXTT18=
EXTT19=
PLAYORDER=
